<svg xmlns="http://www.w3.org/2000/svg" xmlns:xlink="http://www.w3.org/1999/xlink" viewBox="0 0 520.14 520.14"><defs><style>.cls-1{isolation:isolate;}.cls-2{fill:url(#radial-gradient);}.cls-3{mix-blend-mode:multiply;}.cls-4{fill:url(#radial-gradient-2);}.cls-5{fill:url(#radial-gradient-4);}.cls-6{fill:url(#radial-gradient-5);}.cls-7{fill:url(#radial-gradient-7);}.cls-8{fill:url(#linear-gradient);}.cls-9{fill:url(#linear-gradient-2);}.cls-10{fill:url(#linear-gradient-3);}.cls-11{fill:url(#linear-gradient-4);}.cls-12{fill:url(#linear-gradient-5);}.cls-13{fill:url(#linear-gradient-6);}.cls-14{fill:url(#linear-gradient-7);}.cls-15{fill:url(#linear-gradient-8);}.cls-16{fill:url(#linear-gradient-9);}.cls-17{fill:url(#radial-gradient-11);}</style><radialGradient id="radial-gradient" cx="278.4" cy="723.21" r="260" gradientTransform="translate(-248.89 -324.31) rotate(-20)" gradientUnits="userSpaceOnUse"><stop offset="0" stop-color="#c8992e"/><stop offset="0.15" stop-color="#b57e10"/><stop offset="0.43" stop-color="#f9df7b"/><stop offset="0.59" stop-color="#fff3a6"/><stop offset="0.73" stop-color="#f9df7b"/><stop offset="0.93" stop-color="#b57e10"/><stop offset="0.94" stop-color="#b98416"/><stop offset="1" stop-color="#cda035"/></radialGradient><radialGradient id="radial-gradient-2" cx="285.64" cy="730.1" r="219.68" gradientTransform="translate(-248.89 -324.31) rotate(-20)" gradientUnits="userSpaceOnUse"><stop offset="0.59" stop-color="#0071bc"/><stop offset="0.66" stop-color="#006bbf"/><stop offset="0.74" stop-color="#005bc9"/><stop offset="0.83" stop-color="#0041d8"/><stop offset="0.93" stop-color="#001dee"/><stop offset="1" stop-color="blue"/></radialGradient><radialGradient id="radial-gradient-4" cx="285.64" cy="730.1" r="219.68" gradientTransform="translate(-248.89 -324.31) rotate(-20)" gradientUnits="userSpaceOnUse"><stop offset="0.59" stop-color="#d41000"/><stop offset="0.69" stop-color="#ce1000"/><stop offset="0.81" stop-color="#be0e00"/><stop offset="0.95" stop-color="#a40c00"/><stop offset="1" stop-color="#990b00"/></radialGradient><radialGradient id="radial-gradient-5" cx="285.64" cy="730.1" r="219.68" gradientTransform="translate(-248.89 -324.31) rotate(-20)" gradientUnits="userSpaceOnUse"><stop offset="0.59" stop-color="#39b54a"/><stop offset="0.67" stop-color="#35af49"/><stop offset="0.78" stop-color="#299f45"/><stop offset="0.9" stop-color="#16853e"/><stop offset="1" stop-color="#006837"/></radialGradient><radialGradient id="radial-gradient-7" cx="285.64" cy="730.1" r="219.68" gradientTransform="translate(-248.89 -324.31) rotate(-20)" gradientUnits="userSpaceOnUse"><stop offset="0.59" stop-color="#fbb03b"/><stop offset="0.67" stop-color="#faaa3a"/><stop offset="0.77" stop-color="#f89a35"/><stop offset="0.88" stop-color="#f5802e"/><stop offset="0.99" stop-color="#f15c24"/><stop offset="1" stop-color="#f15a24"/></radialGradient><linearGradient id="linear-gradient" x1="182.01" y1="437.31" x2="227.18" y2="437.31" gradientUnits="userSpaceOnUse"><stop offset="0.28" stop-color="#999"/><stop offset="1" stop-color="#333"/></linearGradient><linearGradient id="linear-gradient-2" x1="241.01" y1="62.31" x2="286.18" y2="62.31" gradientUnits="userSpaceOnUse"><stop offset="0.28" stop-color="#f2f2f2"/><stop offset="1" stop-color="#ccc"/></linearGradient><linearGradient id="linear-gradient-3" x1="585.72" y1="475.18" x2="630.9" y2="475.18" gradientTransform="translate(802.27 -171.49) rotate(90)" gradientUnits="userSpaceOnUse"><stop offset="0.28" stop-color="#93278f"/><stop offset="1" stop-color="#662d91"/></linearGradient><linearGradient id="linear-gradient-4" x1="279.12" y1="-26.45" x2="324.3" y2="-26.45" gradientTransform="translate(9.18 644.52) rotate(-67.5)" gradientUnits="userSpaceOnUse"><stop offset="0.28" stop-color="#f7931e"/><stop offset="1" stop-color="#c1272d"/></linearGradient><linearGradient id="linear-gradient-5" x1="148.25" y1="565.13" x2="193.43" y2="565.13" gradientTransform="matrix(0.38, 0.92, -0.92, 0.38, 591.94, -255.13)" gradientUnits="userSpaceOnUse"><stop offset="0.28" stop-color="#ed1e79"/><stop offset="1" stop-color="#9e005d"/></linearGradient><linearGradient id="linear-gradient-6" x1="381.66" y1="274.11" x2="426.84" y2="274.11" gradientTransform="translate(365.62 -251.9) rotate(45)" gradientUnits="userSpaceOnUse"><stop offset="0.28" stop-color="#c69c6d"/><stop offset="1" stop-color="#754c24"/></linearGradient><linearGradient id="linear-gradient-7" x1="229.03" y1="-46.49" x2="274.21" y2="-46.49" gradientTransform="translate(-80.41 436.65) rotate(-45)" gradientUnits="userSpaceOnUse"><stop offset="0.28" stop-color="#fcee21"/><stop offset="1" stop-color="#8cc63f"/></linearGradient><linearGradient id="linear-gradient-8" x1="294.82" y1="163.5" x2="340" y2="163.5" gradientTransform="translate(157.76 -162.31) rotate(22.5)" gradientUnits="userSpaceOnUse"><stop offset="0.28" stop-color="aqua"/><stop offset="1" stop-color="#0071bc"/></linearGradient><linearGradient id="linear-gradient-9" x1="398.45" y1="334.69" x2="443.62" y2="334.69" gradientTransform="translate(-83.63 210.33) rotate(-22.5)" gradientUnits="userSpaceOnUse"><stop offset="0.28" stop-color="#39b54a"/><stop offset="1" stop-color="#006837"/></linearGradient><radialGradient id="radial-gradient-11" cx="260.07" cy="260.07" r="72.09" gradientUnits="userSpaceOnUse"><stop offset="0.32" stop-color="#f9df7b"/><stop offset="0.4" stop-color="#f8dc76"/><stop offset="0.49" stop-color="#f3d268"/><stop offset="0.59" stop-color="#ecc252"/><stop offset="0.69" stop-color="#e2ac32"/><stop offset="0.76" stop-color="#d99713"/><stop offset="0.92" stop-color="#efc95c"/><stop offset="1" stop-color="#f9df7b"/></radialGradient></defs><g class="cls-1"><g id="Layer_2" data-name="Layer 2"><g id="Layer_2-2" data-name="Layer 2"><circle class="cls-2" cx="260.07" cy="260.07" r="260"/><g class="cls-3"><path class="cls-4" d="M173,25.72a249,249,0,0,0-130.38,111L258.84,261.54Z"/><path class="cls-4" d="M268.83,270.23,421,451.52a250.74,250.74,0,0,0,83.73-139.7Z"/><path class="cls-5" d="M257.61,266,40.48,140.59A249.59,249.59,0,0,0,14.83,308.76Z"/><path class="cls-6" d="M505.57,307.48A249,249,0,0,0,495,174.56a252.24,252.24,0,0,0-13.68-30.92L269.62,265.87Z"/><path class="cls-5" d="M177.18,24.22,264,262.71l85.88-236A249,249,0,0,0,177.18,24.22Z"/><path class="cls-7" d="M260.56,273.16l-154.36,184a250.79,250.79,0,0,0,154.36,53Z"/><path class="cls-7" d="M479.24,139.72A249.56,249.56,0,0,0,354,28.38L269.36,260.9Z"/><path class="cls-5" d="M265,272.55V510.09a251.13,251.13,0,0,0,152.54-55.75Z"/><path class="cls-6" d="M256.94,270.57,15.75,313.1a252.08,252.08,0,0,0,9.4,32.47,248.77,248.77,0,0,0,77.57,108.8Z"/></g><circle class="cls-8" cx="204.6" cy="437.31" r="22.59"/><circle class="cls-9" cx="263.6" cy="62.31" r="22.59"/><circle class="cls-10" cx="327.1" cy="436.81" r="22.59"/><circle class="cls-11" cx="100.2" cy="355.65" r="22.59"/><circle class="cls-12" cx="135.2" cy="118.97" r="22.59"/><circle class="cls-13" cx="457.64" cy="227.77" r="22.59"/><circle class="cls-14" cx="64.64" cy="225.86" r="22.59"/><circle class="cls-15" cx="388.44" cy="110.21" r="22.59"/><circle class="cls-16" cx="433.44" cy="358.42" r="22.59"/><circle class="cls-17" cx="260.07" cy="260.07" r="70.18"/></g></g></g></svg>