<svg id="Group_4408" data-name="Group 4408" xmlns="http://www.w3.org/2000/svg" xmlns:xlink="http://www.w3.org/1999/xlink" width="46.282" height="46.291" viewBox="0 0 46.282 46.291">
  <defs>
    <linearGradient id="linear-gradient" x1="0.509" y1="1" x2="0.509" y2="0.206" gradientUnits="objectBoundingBox">
      <stop offset="0" stop-color="#1a1818"/>
      <stop offset="1" stop-color="#1a1818" stop-opacity="0"/>
    </linearGradient>
    <linearGradient id="linear-gradient-2" x1="0.5" x2="0.5" y2="1" gradientUnits="objectBoundingBox">
      <stop offset="0" stop-color="#fff"/>
      <stop offset="1" stop-color="#fff" stop-opacity="0"/>
    </linearGradient>
  </defs>
  <g id="Group_4407" data-name="Group 4407" transform="translate(0 0)">
    <ellipse id="Ellipse_45" data-name="Ellipse 45" cx="23.133" cy="23.133" rx="23.133" ry="23.133" transform="translate(0.01 0.002)" fill="#76187e"/>
    <path id="Path_2751" data-name="Path 2751" d="M1388.469,211.486a23.119,23.119,0,0,0-9.13,34.072c4.624-1.407-3.247-8.725-.646-18.432S1391.542,215.475,1388.469,211.486Zm14.385,5.72a11.551,11.551,0,0,0,10.531-2.4,23.152,23.152,0,0,0-18.554-5.273A11.549,11.549,0,0,0,1402.854,217.206Zm14.518,2.024c-4.656,1.919,3.247,8.726.646,18.433s-13.077,12.109-9.776,15.639a23.119,23.119,0,0,0,9.13-34.072Zm-22.738,28.65a11.55,11.55,0,0,0-10.727,2.581,23.149,23.149,0,0,0,18.618,4.691A11.549,11.549,0,0,0,1394.635,247.88Zm12.022-25.237-10.614-2.844a11.567,11.567,0,0,0-5.987,22.346l10.614,2.844a11.567,11.567,0,0,0,5.988-22.345Z" transform="translate(-1375.212 -209.259)" fill="#edeeef"/>
    <path id="Path_2752" data-name="Path 2752" d="M1420.692,250.913A23.133,23.133,0,0,1,1376,238.938Z" transform="translate(-1375.208 -221.774)" opacity="0.2" fill="url(#linear-gradient)" style="mix-blend-mode: multiply;isolation: isolate"/>
    <text id="_5" data-name="5" transform="matrix(0.966, 0.259, -0.259, 0.966, 20.79, 28.353)" fill="#1a1818" font-size="22" font-family="Roboto-Medium, Roboto" font-weight="500"><tspan x="-6.252" y="0">5</tspan></text>
  </g>
  <path id="Path_2753" data-name="Path 2753" d="M1421.284,233.93c0,12.357-44.748,12.357-44.748,0a22.374,22.374,0,0,1,44.748,0Z" transform="translate(-1375.768 -210.227)" opacity="0.7" fill="url(#linear-gradient-2)"/>
</svg>
