<svg xmlns="http://www.w3.org/2000/svg" width="37.942" height="44.553" viewBox="0 0 37.942 44.553">
  <g id="Group_5337" data-name="Group 5337" transform="translate(-2299.339 -734.088)">
    <g id="Group_4116" data-name="Group 4116">
      <g id="Group_4115" data-name="Group 4115">
        <rect id="Rectangle_379" data-name="Rectangle 379" width="32.534" height="44.553" rx="5.77" transform="translate(2301.963 734.088)" fill="#e50019"/>
      </g>
    </g>
    <g id="Group_4118" data-name="Group 4118">
      <g id="Group_4117" data-name="Group 4117">
        <rect id="Rectangle_380" data-name="Rectangle 380" width="32.534" height="1.002" transform="translate(2301.963 755.843)" fill="#fff"/>
      </g>
    </g>
    <g id="Group_4120" data-name="Group 4120">
      <g id="Group_4119" data-name="Group 4119">
        <path id="Path_1515" data-name="Path 1515" d="M2300.361,752.738a1.022,1.022,0,0,0-1.022,1.022v5.168a1.021,1.021,0,1,0,2.043,0V753.76A1.022,1.022,0,0,0,2300.361,752.738Z" fill="#e50019"/>
      </g>
    </g>
    <g id="Group_4122" data-name="Group 4122">
      <g id="Group_4121" data-name="Group 4121">
        <path id="Path_1516" data-name="Path 1516" d="M2336.26,752.738a1.022,1.022,0,0,0-1.022,1.022v5.168a1.021,1.021,0,1,0,2.043,0V753.76A1.022,1.022,0,0,0,2336.26,752.738Z" fill="#e50019"/>
      </g>
    </g>
  </g>
</svg>
