<svg id="Group_4400" data-name="Group 4400" xmlns="http://www.w3.org/2000/svg" xmlns:xlink="http://www.w3.org/1999/xlink" width="46.282" height="46.291" viewBox="0 0 46.282 46.291">
  <defs>
    <linearGradient id="linear-gradient" x1="0.509" y1="1" x2="0.509" y2="0.206" gradientUnits="objectBoundingBox">
      <stop offset="0" stop-color="#1a1818"/>
      <stop offset="1" stop-color="#1a1818" stop-opacity="0"/>
    </linearGradient>
    <linearGradient id="linear-gradient-2" x1="0.5" x2="0.5" y2="1" gradientUnits="objectBoundingBox">
      <stop offset="0" stop-color="#fff"/>
      <stop offset="1" stop-color="#fff" stop-opacity="0"/>
    </linearGradient>
  </defs>
  <g id="Group_4399" data-name="Group 4399" transform="translate(0 0)">
    <ellipse id="Ellipse_41" data-name="Ellipse 41" cx="23.133" cy="23.133" rx="23.133" ry="23.133" transform="translate(0.01 0.002)" fill="#ffbe00"/>
    <path id="Path_2739" data-name="Path 2739" d="M1348.469,101.718a23.119,23.119,0,0,0-9.13,34.072c4.624-1.407-3.247-8.725-.646-18.432S1351.542,105.707,1348.469,101.718Zm14.385,5.72a11.549,11.549,0,0,0,10.531-2.4,23.152,23.152,0,0,0-18.554-5.273A11.547,11.547,0,0,0,1362.854,107.437Zm14.518,2.025c-4.656,1.919,3.247,8.726.646,18.433s-13.077,12.109-9.776,15.639a23.119,23.119,0,0,0,9.13-34.072Zm-22.738,28.65a11.55,11.55,0,0,0-10.727,2.581,23.149,23.149,0,0,0,18.618,4.691A11.549,11.549,0,0,0,1354.635,138.112Zm12.022-25.237-10.614-2.844a11.567,11.567,0,1,0-5.987,22.345l10.614,2.844a11.567,11.567,0,1,0,5.987-22.345Z" transform="translate(-1335.212 -99.491)" fill="#edeeef"/>
    <path id="Path_2740" data-name="Path 2740" d="M1380.692,141.145A23.133,23.133,0,0,1,1336,129.17Z" transform="translate(-1335.208 -112.006)" opacity="0.2" fill="url(#linear-gradient)" style="mix-blend-mode: multiply;isolation: isolate"/>
    <text id="_1" data-name="1" transform="matrix(0.966, 0.259, -0.259, 0.966, 20.79, 28.353)" fill="#1a1818" font-size="22" font-family="Roboto-Medium, Roboto" font-weight="500"><tspan x="-6.252" y="0">1</tspan></text>
  </g>
  <path id="Path_2741" data-name="Path 2741" d="M1381.284,124.162c0,12.357-44.748,12.357-44.748,0a22.374,22.374,0,0,1,44.748,0Z" transform="translate(-1335.768 -100.459)" opacity="0.7" fill="url(#linear-gradient-2)"/>
</svg>
