<svg id="Group_4412" data-name="Group 4412" xmlns="http://www.w3.org/2000/svg" xmlns:xlink="http://www.w3.org/1999/xlink" width="46.282" height="46.291" viewBox="0 0 46.282 46.291">
  <defs>
    <linearGradient id="linear-gradient" x1="0.509" y1="1" x2="0.509" y2="0.206" gradientUnits="objectBoundingBox">
      <stop offset="0" stop-color="#1a1818"/>
      <stop offset="1" stop-color="#1a1818" stop-opacity="0"/>
    </linearGradient>
    <linearGradient id="linear-gradient-2" x1="0.5" x2="0.5" y2="1" gradientUnits="objectBoundingBox">
      <stop offset="0" stop-color="#fff"/>
      <stop offset="1" stop-color="#fff" stop-opacity="0"/>
    </linearGradient>
  </defs>
  <g id="Group_4411" data-name="Group 4411" transform="translate(0 0)">
    <ellipse id="Ellipse_47" data-name="Ellipse 47" cx="23.133" cy="23.133" rx="23.133" ry="23.133" transform="translate(0.01 0.002)" fill="#ed4c14"/>
    <path id="Path_2757" data-name="Path 2757" d="M1318.969,356.28a23.119,23.119,0,0,0-9.13,34.072c4.624-1.407-3.247-8.725-.646-18.432S1322.042,360.269,1318.969,356.28Zm14.385,5.72a11.55,11.55,0,0,0,10.531-2.4,23.153,23.153,0,0,0-18.554-5.273A11.549,11.549,0,0,0,1333.354,362Zm14.518,2.025c-4.656,1.918,3.247,8.725.646,18.432s-13.077,12.109-9.776,15.64a23.119,23.119,0,0,0,9.13-34.072Zm-22.738,28.649a11.55,11.55,0,0,0-10.727,2.581,23.15,23.15,0,0,0,18.618,4.691A11.55,11.55,0,0,0,1325.135,392.674Zm12.022-25.237-10.614-2.844a11.567,11.567,0,1,0-5.987,22.345l10.614,2.844a11.567,11.567,0,0,0,5.988-22.345Z" transform="translate(-1305.712 -354.053)" fill="#edeeef"/>
    <path id="Path_2758" data-name="Path 2758" d="M1351.192,395.707a23.133,23.133,0,0,1-44.69-11.975Z" transform="translate(-1305.708 -366.568)" opacity="0.2" fill="url(#linear-gradient)" style="mix-blend-mode: multiply;isolation: isolate"/>
    <text id="_7" data-name="7" transform="matrix(0.966, 0.259, -0.259, 0.966, 20.79, 28.353)" fill="#1a1818" font-size="22" font-family="Roboto-Medium, Roboto" font-weight="500"><tspan x="-6.252" y="0">7</tspan></text>
  </g>
  <path id="Path_2759" data-name="Path 2759" d="M1351.784,378.724c0,12.357-44.748,12.357-44.748,0a22.374,22.374,0,0,1,44.748,0Z" transform="translate(-1306.268 -355.022)" opacity="0.7" fill="url(#linear-gradient-2)"/>
</svg>
