<svg id="Group_4410" data-name="Group 4410" xmlns="http://www.w3.org/2000/svg" xmlns:xlink="http://www.w3.org/1999/xlink" width="46.281" height="46.291" viewBox="0 0 46.281 46.291">
  <defs>
    <linearGradient id="linear-gradient" x1="0.509" y1="1" x2="0.509" y2="0.206" gradientUnits="objectBoundingBox">
      <stop offset="0" stop-color="#1a1818"/>
      <stop offset="1" stop-color="#1a1818" stop-opacity="0"/>
    </linearGradient>
    <linearGradient id="linear-gradient-2" x1="0.5" x2="0.5" y2="1" gradientUnits="objectBoundingBox">
      <stop offset="0" stop-color="#fff"/>
      <stop offset="1" stop-color="#fff" stop-opacity="0"/>
    </linearGradient>
  </defs>
  <g id="Group_4409" data-name="Group 4409" transform="translate(0 0)">
    <ellipse id="Ellipse_46" data-name="Ellipse 46" cx="23.133" cy="23.133" rx="23.133" ry="23.133" transform="translate(0.01 0.002)" fill="#79bf89"/>
    <path id="Path_2754" data-name="Path 2754" d="M1505.364,235.175a23.118,23.118,0,0,0-9.13,34.071c4.624-1.407-3.247-8.725-.646-18.432S1508.437,239.165,1505.364,235.175Zm14.385,5.72a11.551,11.551,0,0,0,10.531-2.4,23.146,23.146,0,0,0-18.554-5.273A11.549,11.549,0,0,0,1519.749,240.895Zm14.518,2.025c-4.656,1.918,3.247,8.725.646,18.432s-13.077,12.109-9.775,15.64a23.119,23.119,0,0,0,9.129-34.072Zm-22.738,28.65a11.548,11.548,0,0,0-10.727,2.58,23.149,23.149,0,0,0,18.618,4.691A11.549,11.549,0,0,0,1511.53,271.57Zm12.022-25.237-10.614-2.844a11.567,11.567,0,0,0-5.987,22.345l10.614,2.844a11.567,11.567,0,0,0,5.988-22.346Z" transform="translate(-1492.107 -232.948)" fill="#edeeef"/>
    <path id="Path_2755" data-name="Path 2755" d="M1537.587,274.6a23.133,23.133,0,1,1-44.69-11.974Z" transform="translate(-1492.103 -245.463)" opacity="0.2" fill="url(#linear-gradient)" style="mix-blend-mode: multiply;isolation: isolate"/>
    <text id="_6" data-name="6" transform="matrix(0.966, 0.259, -0.259, 0.966, 20.79, 28.353)" fill="#1a1818" font-size="22" font-family="Roboto-Medium, Roboto" font-weight="500"><tspan x="-6.252" y="0">6</tspan></text>
  </g>
  <path id="Path_2756" data-name="Path 2756" d="M1538.179,257.619c0,12.357-44.748,12.357-44.748,0a22.374,22.374,0,1,1,44.748,0Z" transform="translate(-1492.663 -233.917)" opacity="0.7" fill="url(#linear-gradient-2)"/>
</svg>
