<svg xmlns="http://www.w3.org/2000/svg" width="80.965" height="76.723" viewBox="0 0 80.965 76.723"><defs><style>.a{fill:#006e66;}.b{fill:#fcc02e;}.c{fill:#1ab3b0;}.d{fill:#bbd738;}.e{fill:#ffe045;}</style></defs><g transform="translate(-1342.789 -209.035)"><g transform="translate(1345.239 209.852)"><g transform="translate(0.514)"><path class="a" d="M1459.066,523.741c-3.53-.961-8.052,7.579-3.68,8.056,1.825.2,3.329-2.252,4.176-3.552C1460.469,526.854,1461.3,524.351,1459.066,523.741Z" transform="translate(-1432.399 -455.903)"/><path class="a" d="M1591.229,505.292c-.954-.956-3.646-3.27-4.758-1.16-.919,1.744.633,3.323,1.733,4.536,1.149,1.267,2.367,3.076,3.954,3.784,1.458.65,3.769-.477,3.048-2.357C1594.468,508.167,1592.662,506.728,1591.229,505.292Z" transform="translate(-1536.101 -439.953)"/><path class="a" d="M1507.967,274.3c-3.909-.346-8.484-.728-12.263.538l.024.056a2.213,2.213,0,0,0,.581,4.325,36.965,36.965,0,0,0,4.12.165,15.983,15.983,0,0,0,.462,6.282,1.371,1.371,0,0,0,2.618-.007,20.324,20.324,0,0,0,.892-6.318c1.2,0,2.392.022,3.581.133C1511.289,279.779,1511.266,274.588,1507.967,274.3Z" transform="translate(-1464.14 -260.625)"/><path class="a" d="M1419.892,349.458a7.3,7.3,0,0,0-2.041-1.064,2.006,2.006,0,0,0-2.437,2.451,4.734,4.734,0,0,0,2.018,2.623,4.5,4.5,0,0,0,2.874,1.143,2.275,2.275,0,0,0,2.037-1.379,2.317,2.317,0,0,0-.468-2.439A7.6,7.6,0,0,0,1419.892,349.458Z" transform="translate(-1402.499 -318.774)"/><path class="a" d="M1614.424,342.691a13.259,13.259,0,0,0-3.277,2.143,12.9,12.9,0,0,0-2.714,2.6,1.985,1.985,0,0,0,2.229,2.883,12.1,12.1,0,0,0,3.04-1.806,12.8,12.8,0,0,0,2.776-2.31,2.2,2.2,0,0,0,.321-2.548A2.1,2.1,0,0,0,1614.424,342.691Z" transform="translate(-1553.269 -314.292)"/><path class="a" d="M1429.512,229.434c-3.9-1.96-8.356-2.718-12.54-3.9-3.041-.859-4.435-1.276-5.49-4.491-.463-1.412-.487-2.691-1.352-3.974-3.917-5.811-12.68-4.2-18.558-3.714-2.742.225-6.536.229-8.917,1.865-2.5,1.717-2.432,4.173-3.7,6.572-2.173,4.117-9.435,6.2-13.318,8.351-3.242,1.792-7.235,3.308-9.146,6.6a.779.779,0,0,0,.668,1.157c3.767.219,7.409-2.359,10.655-4.062a104.455,104.455,0,0,0,10.644-5.936,9.049,9.049,0,0,0,4.093-5.134c.846-2.81,1.032-4.348,4.633-4.654,1.718-.146,3.467-.04,5.191-.114,3.425-.147,9.893-1.737,12.778.614,2.555,2.081,1.339,5.694,3.177,8.158,1.712,2.294,4.774,2.714,7.369,3.417,4.183,1.134,8.585,2.56,12.95,2.455C1430.276,232.61,1431.1,230.233,1429.512,229.434Z" transform="translate(-1356.387 -212.781)"/></g><path class="a" d="M1458.91,333.634a20.811,20.811,0,0,0-10.958-12.74,19.854,19.854,0,0,0-8.929-1.795c-3.8-.416-8.2,1.269-11.241,2.911a33.27,33.27,0,0,0-12.26,11.539c-6.48,10.463-1.992,22.341,6.7,29.994,8.569,7.547,19.783,8.452,28.574.644C1458.872,357.012,1462.2,343.868,1458.91,333.634Z" transform="translate(-1399.713 -295.875)"/><path class="a" d="M1515.623,374.343a27.366,27.366,0,0,0-5.1-5.2,1.493,1.493,0,0,0-2.038.54c-.719,1.691-1.54,3.331-2.346,4.983a1.208,1.208,0,0,0,2.088,1.211l.011.008c.477-.82.951-1.642,1.435-2.457.039.057.083.111.122.167a40.479,40.479,0,0,0-.713,4.6c-.037,2.1-.187,4.447,1.051,6.221a.836.836,0,0,0,1.426,0c1.116-1.871.815-4.117.625-6.226-.064-.71-.156-1.43-.264-2.144.351.336.707.661,1.067.959A1.872,1.872,0,0,0,1515.623,374.343Z" transform="translate(-1472.863 -334.899)"/><path class="a" d="M1505.8,437.3c-1.668.26-2.648,1.718-3.536,3.019a25.884,25.884,0,0,0-2.493,4.6,2.014,2.014,0,0,0,.7,2.658,1.956,1.956,0,0,0,2.658-.7,33.55,33.55,0,0,1,2.234-4.45c.8-1.311,1.815-2.488,1.781-4.1A1.083,1.083,0,0,0,1505.8,437.3Z" transform="translate(-1467.836 -388.35)"/><g transform="translate(0 12.964)"><path class="a" d="M1377.332,298.415c-1.228-3.668-6.458-3.464-9.68-3.009a15.2,15.2,0,0,0-6.99,2.867,8.551,8.551,0,0,0-.9-.968,13.507,13.507,0,0,0-3.32-2.717,1.648,1.648,0,0,0-2.228,2.24,13.559,13.559,0,0,0,2.781,3.259,8.773,8.773,0,0,0,.93.84c-.03.039-.066.073-.1.112a12.851,12.851,0,0,0-2.454,11.008c.673,2.506,2.917,6.668,6.043,5.7a.74.74,0,0,0,.524-.526c.008-.057,5.82-5.134,8.28-7.75s6.765-5.807,6.985-9.576a1.5,1.5,0,0,0-.028-.378A1.3,1.3,0,0,0,1377.332,298.415Z" transform="translate(-1354.028 -289.586)"/><path class="a" d="M1621.264,277.6c.146-.141.3-.276.432-.43.992-1.116,1.987-2.128,1.673-3.723a1.624,1.624,0,0,0-1.563-1.183c-1.54.075-2.259,1.247-3.1,2.375-.124.166-.24.334-.355.5-6.542-3.791-15.316-.522-19.448,5.438-.68.982,4.919,5.924,6.942,7.459,3.481,2.64,6.136,6.128,9.355,9.048a2.262,2.262,0,0,0,2.685.339,2.9,2.9,0,0,0,.793-.8,9.141,9.141,0,0,1,.885-1.046C1624.761,291.469,1625.466,282.661,1621.264,277.6Z" transform="translate(-1545.48 -272.26)"/></g></g><g transform="translate(1342.789 209.035)"><g transform="translate(0.514 0)"><path class="b" d="M1447.827,519.994c-3.53-.961-8.052,7.579-3.68,8.056,1.825.2,3.329-2.251,4.176-3.552C1449.229,523.107,1450.064,520.6,1447.827,519.994Z" transform="translate(-1421.16 -452.156)"/><path class="b" d="M1579.99,501.546c-.954-.956-3.646-3.271-4.758-1.16-.919,1.744.632,3.322,1.733,4.535,1.149,1.267,2.367,3.076,3.954,3.783,1.458.65,3.769-.477,3.048-2.357C1583.229,504.421,1581.423,502.982,1579.99,501.546Z" transform="translate(-1524.862 -436.207)"/><path class="b" d="M1496.728,270.551c-3.909-.346-8.484-.728-12.263.538l.024.056a2.213,2.213,0,0,0,.581,4.325,36.965,36.965,0,0,0,4.12.165,15.979,15.979,0,0,0,.462,6.282,1.371,1.371,0,0,0,2.618-.007,20.324,20.324,0,0,0,.892-6.318c1.2,0,2.392.022,3.581.133C1500.05,276.032,1500.026,270.842,1496.728,270.551Z" transform="translate(-1452.901 -256.879)"/><path class="b" d="M1408.653,345.712a7.286,7.286,0,0,0-2.041-1.064,2.006,2.006,0,0,0-2.437,2.451,4.734,4.734,0,0,0,2.018,2.623,4.5,4.5,0,0,0,2.874,1.143,2.275,2.275,0,0,0,2.037-1.379,2.318,2.318,0,0,0-.469-2.439A7.583,7.583,0,0,0,1408.653,345.712Z" transform="translate(-1391.26 -315.028)"/><path class="b" d="M1603.185,338.945a13.251,13.251,0,0,0-3.277,2.143,12.908,12.908,0,0,0-2.714,2.6,1.985,1.985,0,0,0,2.229,2.883,12.1,12.1,0,0,0,3.04-1.806,12.791,12.791,0,0,0,2.776-2.31,2.2,2.2,0,0,0,.322-2.548A2.1,2.1,0,0,0,1603.185,338.945Z" transform="translate(-1542.03 -310.546)"/><path class="b" d="M1418.273,225.688c-3.9-1.96-8.357-2.718-12.54-3.9-3.041-.859-4.435-1.276-5.49-4.491-.463-1.412-.487-2.691-1.352-3.975-3.917-5.811-12.68-4.2-18.558-3.714-2.742.225-6.536.229-8.917,1.865-2.5,1.716-2.432,4.173-3.7,6.572-2.173,4.117-9.435,6.2-13.318,8.35-3.242,1.792-7.235,3.309-9.146,6.6a.779.779,0,0,0,.668,1.158c3.767.219,7.409-2.359,10.655-4.062a104.443,104.443,0,0,0,10.644-5.936,9.049,9.049,0,0,0,4.093-5.135c.846-2.81,1.032-4.347,4.633-4.654,1.718-.146,3.467-.04,5.191-.114,3.425-.147,9.893-1.737,12.778.614,2.555,2.082,1.339,5.695,3.177,8.158,1.712,2.294,4.774,2.713,7.369,3.417,4.183,1.134,8.585,2.56,12.95,2.454C1419.037,228.864,1419.862,226.487,1418.273,225.688Z" transform="translate(-1345.148 -209.035)"/></g><path class="c" d="M1447.671,329.888a20.811,20.811,0,0,0-10.958-12.74,19.854,19.854,0,0,0-8.929-1.795c-3.8-.416-8.2,1.269-11.241,2.911a33.266,33.266,0,0,0-12.26,11.539c-6.48,10.463-1.992,22.341,6.7,29.994,8.569,7.547,19.783,8.452,28.574.644C1447.633,353.266,1450.962,340.122,1447.671,329.888Z" transform="translate(-1388.474 -292.129)"/><path class="d" d="M1504.384,370.6a27.362,27.362,0,0,0-5.1-5.2,1.493,1.493,0,0,0-2.038.54c-.719,1.691-1.54,3.332-2.346,4.983a1.208,1.208,0,0,0,2.088,1.211l.011.008c.477-.821.951-1.642,1.435-2.457.039.057.083.111.123.167a40.432,40.432,0,0,0-.713,4.6c-.037,2.1-.186,4.447,1.052,6.222a.836.836,0,0,0,1.425,0c1.116-1.871.815-4.117.625-6.226-.064-.71-.156-1.43-.264-2.144.351.336.707.661,1.067.959A1.872,1.872,0,0,0,1504.384,370.6Z" transform="translate(-1461.624 -331.152)"/><path class="e" d="M1494.565,433.556c-1.669.26-2.648,1.718-3.536,3.019a25.9,25.9,0,0,0-2.493,4.6,2.014,2.014,0,0,0,.7,2.659,1.956,1.956,0,0,0,2.658-.7,33.564,33.564,0,0,1,2.234-4.45c.8-1.311,1.815-2.488,1.781-4.1A1.083,1.083,0,0,0,1494.565,433.556Z" transform="translate(-1456.597 -384.604)"/><g transform="translate(0 12.964)"><path class="d" d="M1366.093,294.669c-1.227-3.668-6.458-3.464-9.68-3.009a15.2,15.2,0,0,0-6.989,2.866,8.541,8.541,0,0,0-.9-.968,13.5,13.5,0,0,0-3.32-2.717,1.648,1.648,0,0,0-2.228,2.24,13.561,13.561,0,0,0,2.781,3.259,8.766,8.766,0,0,0,.931.84c-.031.039-.066.073-.1.112a12.851,12.851,0,0,0-2.454,11.007c.673,2.506,2.917,6.668,6.043,5.7a.74.74,0,0,0,.524-.527c.008-.057,5.82-5.134,8.28-7.75s6.765-5.807,6.986-9.576a1.489,1.489,0,0,0-.028-.378A1.3,1.3,0,0,0,1366.093,294.669Z" transform="translate(-1342.789 -285.84)"/><path class="d" d="M1610.025,273.85c.145-.141.3-.276.432-.43.992-1.116,1.987-2.128,1.673-3.722a1.624,1.624,0,0,0-1.563-1.183c-1.54.075-2.26,1.247-3.1,2.375-.124.166-.24.334-.355.5-6.542-3.791-15.316-.523-19.448,5.438-.68.982,4.919,5.924,6.942,7.459,3.481,2.64,6.136,6.128,9.355,9.048a2.262,2.262,0,0,0,2.685.339,2.9,2.9,0,0,0,.793-.8,9.139,9.139,0,0,1,.885-1.046C1613.522,287.723,1614.227,278.914,1610.025,273.85Z" transform="translate(-1534.241 -268.513)"/></g></g></g></svg>