<svg id="Group_4402" data-name="Group 4402" xmlns="http://www.w3.org/2000/svg" xmlns:xlink="http://www.w3.org/1999/xlink" width="46.281" height="46.291" viewBox="0 0 46.281 46.291">
  <defs>
    <linearGradient id="linear-gradient" x1="0.509" y1="1" x2="0.509" y2="0.206" gradientUnits="objectBoundingBox">
      <stop offset="0" stop-color="#1a1818"/>
      <stop offset="1" stop-color="#1a1818" stop-opacity="0"/>
    </linearGradient>
    <linearGradient id="linear-gradient-2" x1="0.5" x2="0.5" y2="1" gradientUnits="objectBoundingBox">
      <stop offset="0" stop-color="#fff"/>
      <stop offset="1" stop-color="#fff" stop-opacity="0"/>
    </linearGradient>
  </defs>
  <g id="Group_4401" data-name="Group 4401" transform="translate(0 0)">
    <ellipse id="Ellipse_42" data-name="Ellipse 42" cx="23.133" cy="23.133" rx="23.133" ry="23.133" transform="translate(0.01 0.002)" fill="#e0007a"/>
    <path id="Path_2742" data-name="Path 2742" d="M1442.939,101.7a23.119,23.119,0,0,0-9.13,34.072c4.624-1.407-3.247-8.726-.646-18.432S1446.013,105.692,1442.939,101.7Zm14.385,5.72a11.551,11.551,0,0,0,10.531-2.4,23.149,23.149,0,0,0-18.554-5.273A11.546,11.546,0,0,0,1457.325,107.422Zm14.518,2.025c-4.656,1.919,3.247,8.726.647,18.432s-13.077,12.109-9.776,15.64a23.118,23.118,0,0,0,9.13-34.072Zm-22.737,28.65a11.549,11.549,0,0,0-10.728,2.58A23.148,23.148,0,0,0,1457,145.368,11.549,11.549,0,0,0,1449.106,138.1Zm12.021-25.237-10.614-2.844a11.567,11.567,0,0,0-5.988,22.345l10.614,2.844a11.567,11.567,0,0,0,5.987-22.345Z" transform="translate(-1429.683 -99.476)" fill="#edeeef"/>
    <path id="Path_2743" data-name="Path 2743" d="M1475.163,141.13a23.133,23.133,0,0,1-44.69-11.975Z" transform="translate(-1429.679 -111.991)" opacity="0.2" fill="url(#linear-gradient)" style="mix-blend-mode: multiply;isolation: isolate"/>
    <text id="_2" data-name="2" transform="matrix(0.966, 0.259, -0.259, 0.966, 20.79, 28.353)" fill="#1a1818" font-size="22" font-family="Roboto-Medium, Roboto" font-weight="500"><tspan x="-6.252" y="0">2</tspan></text>
  </g>
  <path id="Path_2744" data-name="Path 2744" d="M1475.754,124.146c0,12.357-44.748,12.357-44.748,0a22.374,22.374,0,0,1,44.748,0Z" transform="translate(-1430.239 -100.444)" opacity="0.7" fill="url(#linear-gradient-2)"/>
</svg>
